<svg width="330" height="103" viewBox="0 0 330 103" fill="none" xmlns="http://www.w3.org/2000/svg">
<path d="M14.092 15.148C15.436 15.388 16.576 16.096 17.512 17.272C18.448 18.448 18.916 19.78 18.916 21.268C18.916 22.54 18.58 23.692 17.908 24.724C17.26 25.732 16.312 26.536 15.064 27.136C13.816 27.712 12.364 28 10.708 28H0.7V2.98H10.24C11.944 2.98 13.408 3.268 14.632 3.844C15.856 4.42 16.78 5.2 17.404 6.184C18.028 7.144 18.34 8.224 18.34 9.424C18.34 10.864 17.956 12.064 17.188 13.024C16.42 13.984 15.388 14.692 14.092 15.148ZM4.804 13.492H9.88C11.224 13.492 12.268 13.192 13.012 12.592C13.78 11.968 14.164 11.08 14.164 9.928C14.164 8.8 13.78 7.924 13.012 7.3C12.268 6.652 11.224 6.328 9.88 6.328H4.804V13.492ZM10.348 24.652C11.74 24.652 12.832 24.316 13.624 23.644C14.416 22.972 14.812 22.036 14.812 20.836C14.812 19.612 14.392 18.64 13.552 17.92C12.712 17.2 11.596 16.84 10.204 16.84H4.804V24.652H10.348ZM41.5558 17.596C41.5558 18.34 41.5078 19.012 41.4118 19.612H26.2558C26.3758 21.196 26.9638 22.468 28.0198 23.428C29.0758 24.388 30.3718 24.868 31.9078 24.868C34.1158 24.868 35.6758 23.944 36.5878 22.096H41.0158C40.4158 23.92 39.3238 25.42 37.7398 26.596C36.1798 27.748 34.2358 28.324 31.9078 28.324C30.0118 28.324 28.3078 27.904 26.7958 27.064C25.3078 26.2 24.1318 25 23.2678 23.464C22.4278 21.904 22.0078 20.104 22.0078 18.064C22.0078 16.024 22.4158 14.236 23.2318 12.7C24.0718 11.14 25.2358 9.94 26.7238 9.1C28.2358 8.26 29.9638 7.84 31.9078 7.84C33.7798 7.84 35.4478 8.248 36.9118 9.064C38.3758 9.88 39.5158 11.032 40.3318 12.52C41.1478 13.984 41.5558 15.676 41.5558 17.596ZM37.2718 16.3C37.2478 14.788 36.7078 13.576 35.6518 12.664C34.5958 11.752 33.2878 11.296 31.7278 11.296C30.3118 11.296 29.0998 11.752 28.0918 12.664C27.0838 13.552 26.4838 14.764 26.2918 16.3H37.2718ZM69.6065 7.84C71.1665 7.84 72.5585 8.164 73.7825 8.812C75.0305 9.46 76.0025 10.42 76.6985 11.692C77.4185 12.964 77.7785 14.5 77.7785 16.3V28H73.7105V16.912C73.7105 15.136 73.2665 13.78 72.3785 12.844C71.4905 11.884 70.2785 11.404 68.7425 11.404C67.2065 11.404 65.9825 11.884 65.0705 12.844C64.1825 13.78 63.7385 15.136 63.7385 16.912V28H59.6705V16.912C59.6705 15.136 59.2265 13.78 58.3385 12.844C57.4505 11.884 56.2385 11.404 54.7025 11.404C53.1665 11.404 51.9425 11.884 51.0305 12.844C50.1425 13.78 49.6985 15.136 49.6985 16.912V28H45.5945V8.164H49.6985V10.432C50.3705 9.616 51.2225 8.98 52.2545 8.524C53.2865 8.068 54.3905 7.84 55.5665 7.84C57.1505 7.84 58.5665 8.176 59.8145 8.848C61.0625 9.52 62.0225 10.492 62.6945 11.764C63.2945 10.564 64.2305 9.616 65.5025 8.92C66.7745 8.2 68.1425 7.84 69.6065 7.84ZM100.02 24.328L105.636 8.164H109.992L102.432 28H97.5363L90.0123 8.164H94.4043L100.02 24.328ZM115.183 5.536C114.439 5.536 113.815 5.284 113.311 4.78C112.807 4.276 112.555 3.652 112.555 2.908C112.555 2.164 112.807 1.54 113.311 1.036C113.815 0.531999 114.439 0.279999 115.183 0.279999C115.903 0.279999 116.515 0.531999 117.019 1.036C117.523 1.54 117.775 2.164 117.775 2.908C117.775 3.652 117.523 4.276 117.019 4.78C116.515 5.284 115.903 5.536 115.183 5.536ZM117.199 8.164V28H113.095V8.164H117.199ZM132.595 7.84C134.155 7.84 135.547 8.164 136.771 8.812C138.019 9.46 138.991 10.42 139.687 11.692C140.383 12.964 140.731 14.5 140.731 16.3V28H136.663V16.912C136.663 15.136 136.219 13.78 135.331 12.844C134.443 11.884 133.231 11.404 131.695 11.404C130.159 11.404 128.935 11.884 128.023 12.844C127.135 13.78 126.691 15.136 126.691 16.912V28H122.587V8.164H126.691V10.432C127.363 9.616 128.215 8.98 129.247 8.524C130.303 8.068 131.419 7.84 132.595 7.84ZM144.598 17.992C144.598 16 145.006 14.236 145.822 12.7C146.662 11.164 147.79 9.976 149.206 9.136C150.646 8.272 152.242 7.84 153.994 7.84C155.29 7.84 156.562 8.128 157.81 8.704C159.082 9.256 160.09 10 160.834 10.936V1.36H164.974V28H160.834V25.012C160.162 25.972 159.226 26.764 158.026 27.388C156.85 28.012 155.494 28.324 153.958 28.324C152.23 28.324 150.646 27.892 149.206 27.028C147.79 26.14 146.662 24.916 145.822 23.356C145.006 21.772 144.598 19.984 144.598 17.992ZM160.834 18.064C160.834 16.696 160.546 15.508 159.97 14.5C159.418 13.492 158.686 12.724 157.774 12.196C156.862 11.668 155.878 11.404 154.822 11.404C153.766 11.404 152.782 11.668 151.87 12.196C150.958 12.7 150.214 13.456 149.638 14.464C149.086 15.448 148.81 16.624 148.81 17.992C148.81 19.36 149.086 20.56 149.638 21.592C150.214 22.624 150.958 23.416 151.87 23.968C152.806 24.496 153.79 24.76 154.822 24.76C155.878 24.76 156.862 24.496 157.774 23.968C158.686 23.44 159.418 22.672 159.97 21.664C160.546 20.632 160.834 19.432 160.834 18.064ZM178.968 28.324C177.096 28.324 175.404 27.904 173.892 27.064C172.38 26.2 171.192 25 170.328 23.464C169.464 21.904 169.032 20.104 169.032 18.064C169.032 16.048 169.476 14.26 170.364 12.7C171.252 11.14 172.464 9.94 174 9.1C175.536 8.26 177.252 7.84 179.148 7.84C181.044 7.84 182.76 8.26 184.296 9.1C185.832 9.94 187.044 11.14 187.932 12.7C188.82 14.26 189.264 16.048 189.264 18.064C189.264 20.08 188.808 21.868 187.896 23.428C186.984 24.988 185.736 26.2 184.152 27.064C182.592 27.904 180.864 28.324 178.968 28.324ZM178.968 24.76C180.024 24.76 181.008 24.508 181.92 24.004C182.856 23.5 183.612 22.744 184.188 21.736C184.764 20.728 185.052 19.504 185.052 18.064C185.052 16.624 184.776 15.412 184.224 14.428C183.672 13.42 182.94 12.664 182.028 12.16C181.116 11.656 180.132 11.404 179.076 11.404C178.02 11.404 177.036 11.656 176.124 12.16C175.236 12.664 174.528 13.42 174 14.428C173.472 15.412 173.208 16.624 173.208 18.064C173.208 20.2 173.748 21.856 174.828 23.032C175.932 24.184 177.312 24.76 178.968 24.76ZM201.305 17.992C201.305 16 201.713 14.236 202.529 12.7C203.369 11.164 204.497 9.976 205.913 9.136C207.353 8.272 208.937 7.84 210.665 7.84C212.225 7.84 213.581 8.152 214.733 8.776C215.909 9.376 216.845 10.132 217.541 11.044V8.164H221.681V28H217.541V25.048C216.845 25.984 215.897 26.764 214.697 27.388C213.497 28.012 212.129 28.324 210.593 28.324C208.889 28.324 207.329 27.892 205.913 27.028C204.497 26.14 203.369 24.916 202.529 23.356C201.713 21.772 201.305 19.984 201.305 17.992ZM217.541 18.064C217.541 16.696 217.253 15.508 216.677 14.5C216.125 13.492 215.393 12.724 214.481 12.196C213.569 11.668 212.585 11.404 211.529 11.404C210.473 11.404 209.489 11.668 208.577 12.196C207.665 12.7 206.921 13.456 206.345 14.464C205.793 15.448 205.517 16.624 205.517 17.992C205.517 19.36 205.793 20.56 206.345 21.592C206.921 22.624 207.665 23.416 208.577 23.968C209.513 24.496 210.497 24.76 211.529 24.76C212.585 24.76 213.569 24.496 214.481 23.968C215.393 23.44 216.125 22.672 216.677 21.664C217.253 20.632 217.541 19.432 217.541 18.064ZM235.675 28.324C233.803 28.324 232.111 27.904 230.599 27.064C229.087 26.2 227.899 25 227.035 23.464C226.171 21.904 225.739 20.104 225.739 18.064C225.739 16.048 226.183 14.26 227.071 12.7C227.959 11.14 229.171 9.94 230.707 9.1C232.243 8.26 233.959 7.84 235.855 7.84C237.751 7.84 239.467 8.26 241.003 9.1C242.539 9.94 243.751 11.14 244.639 12.7C245.527 14.26 245.971 16.048 245.971 18.064C245.971 20.08 245.515 21.868 244.603 23.428C243.691 24.988 242.443 26.2 240.859 27.064C239.299 27.904 237.571 28.324 235.675 28.324ZM235.675 24.76C236.731 24.76 237.715 24.508 238.627 24.004C239.563 23.5 240.319 22.744 240.895 21.736C241.471 20.728 241.759 19.504 241.759 18.064C241.759 16.624 241.483 15.412 240.931 14.428C240.379 13.42 239.647 12.664 238.735 12.16C237.823 11.656 236.839 11.404 235.783 11.404C234.727 11.404 233.743 11.656 232.831 12.16C231.943 12.664 231.235 13.42 230.707 14.428C230.179 15.412 229.915 16.624 229.915 18.064C229.915 20.2 230.455 21.856 231.535 23.032C232.639 24.184 234.019 24.76 235.675 24.76Z" fill="#2F2F2F"/>
<path d="M26.934 68.61C26.934 70.6647 26.4587 72.5353 25.508 74.222C24.5573 75.878 23.1467 77.1967 21.276 78.178C19.436 79.1593 17.1973 79.65 14.56 79.65H10.512V90H0.3V57.432H14.56C18.5467 57.432 21.598 58.444 23.714 60.468C25.8607 62.492 26.934 65.206 26.934 68.61ZM13.41 71.6C15.526 71.6 16.584 70.6033 16.584 68.61C16.584 66.6167 15.526 65.62 13.41 65.62H10.512V71.6H13.41ZM55.289 76.798C55.289 77.5033 55.243 78.178 55.151 78.822H38.729C38.8824 81.0607 39.8177 82.18 41.535 82.18C42.639 82.18 43.4364 81.674 43.927 80.662H54.737C54.369 82.502 53.587 84.158 52.391 85.63C51.2257 87.0713 49.7384 88.2213 47.929 89.08C46.1504 89.908 44.1877 90.322 42.041 90.322C39.465 90.322 37.165 89.7853 35.141 88.712C33.1477 87.6387 31.5837 86.1053 30.449 84.112C29.345 82.088 28.793 79.7267 28.793 77.028C28.793 74.3293 29.345 71.9833 30.449 69.99C31.5837 67.966 33.1477 66.4173 35.141 65.344C37.165 64.2707 39.465 63.734 42.041 63.734C44.617 63.734 46.9017 64.2707 48.895 65.344C50.919 66.3867 52.483 67.8893 53.587 69.852C54.7217 71.8147 55.289 74.13 55.289 76.798ZM44.939 74.36C44.939 73.5013 44.663 72.8573 44.111 72.428C43.559 71.968 42.869 71.738 42.041 71.738C40.2317 71.738 39.1737 72.612 38.867 74.36H44.939ZM70.1568 81.582C71.3221 81.582 72.1041 80.9073 72.5028 79.558H83.3128C82.7914 82.41 81.6568 84.7407 79.9088 86.55C78.1608 88.3593 75.9834 89.5247 73.3768 90.046V91.564C74.2354 91.564 75.1248 91.7327 76.0448 92.07C76.9648 92.438 77.7468 93.036 78.3908 93.864C79.0348 94.7227 79.3568 95.8267 79.3568 97.176C79.3568 99.1693 78.6668 100.595 77.2868 101.454C75.9068 102.343 74.2968 102.788 72.4568 102.788H64.4988V97.59H71.3988C71.7668 97.59 72.0581 97.5133 72.2728 97.36C72.4874 97.2373 72.5948 97.0687 72.5948 96.854C72.5948 96.394 72.1961 96.164 71.3988 96.164H67.4888V90.092C64.3301 89.54 61.8154 88.114 59.9448 85.814C58.0741 83.514 57.1388 80.5853 57.1388 77.028C57.1388 74.3293 57.6908 71.9833 58.7948 69.99C59.9294 67.966 61.4934 66.4173 63.4868 65.344C65.5108 64.2707 67.8108 63.734 70.3868 63.734C73.7601 63.734 76.5968 64.6847 78.8968 66.586C81.2274 68.4873 82.6994 71.1247 83.3128 74.498H72.5028C72.1041 73.1487 71.3221 72.474 70.1568 72.474C69.3288 72.474 68.6694 72.8573 68.1788 73.624C67.7188 74.3907 67.4888 75.5253 67.4888 77.028C67.4888 78.5307 67.7188 79.6653 68.1788 80.432C68.6694 81.1987 69.3288 81.582 70.1568 81.582ZM85.17 77.028C85.17 74.2987 85.63 71.9373 86.55 69.944C87.5007 67.92 88.7887 66.3867 90.414 65.344C92.0393 64.2707 93.864 63.734 95.888 63.734C97.5747 63.734 99.0313 64.0867 100.258 64.792C101.485 65.4667 102.42 66.402 103.064 67.598V64.056H113.23V90H103.064V86.458C102.42 87.654 101.485 88.6047 100.258 89.31C99.0313 89.9847 97.5747 90.322 95.888 90.322C93.864 90.322 92.0393 89.8007 90.414 88.758C88.7887 87.6847 87.5007 86.1513 86.55 84.158C85.63 82.134 85.17 79.7573 85.17 77.028ZM103.064 77.028C103.064 75.648 102.711 74.5747 102.006 73.808C101.301 73.0413 100.396 72.658 99.292 72.658C98.188 72.658 97.2833 73.0413 96.578 73.808C95.8727 74.5747 95.52 75.648 95.52 77.028C95.52 78.408 95.8727 79.4813 96.578 80.248C97.2833 81.0147 98.188 81.398 99.292 81.398C100.396 81.398 101.301 81.0147 102.006 80.248C102.711 79.4813 103.064 78.408 103.064 77.028ZM129.362 90.322C126.908 90.322 124.731 89.9233 122.83 89.126C120.959 88.3287 119.472 87.2247 118.368 85.814C117.264 84.4033 116.635 82.8087 116.482 81.03H126.28C126.402 81.7967 126.724 82.364 127.246 82.732C127.798 83.1 128.488 83.284 129.316 83.284C129.837 83.284 130.251 83.1767 130.558 82.962C130.864 82.7167 131.018 82.4253 131.018 82.088C131.018 81.5053 130.696 81.0913 130.052 80.846C129.408 80.6007 128.319 80.3247 126.786 80.018C124.915 79.65 123.366 79.2513 122.14 78.822C120.944 78.3927 119.886 77.6567 118.966 76.614C118.076 75.5713 117.632 74.13 117.632 72.29C117.632 70.6953 118.046 69.254 118.874 67.966C119.732 66.6473 120.99 65.62 122.646 64.884C124.302 64.1173 126.31 63.734 128.672 63.734C132.168 63.734 134.897 64.5927 136.86 66.31C138.853 68.0273 140.049 70.266 140.448 73.026H131.386C131.232 72.3207 130.91 71.784 130.42 71.416C129.929 71.0173 129.27 70.818 128.442 70.818C127.92 70.818 127.522 70.9253 127.246 71.14C126.97 71.324 126.832 71.6153 126.832 72.014C126.832 72.5353 127.154 72.934 127.798 73.21C128.442 73.4553 129.469 73.716 130.88 73.992C132.75 74.36 134.33 74.774 135.618 75.234C136.906 75.694 138.025 76.4913 138.976 77.626C139.926 78.73 140.402 80.2633 140.402 82.226C140.402 83.7593 139.957 85.1393 139.068 86.366C138.178 87.5927 136.89 88.5587 135.204 89.264C133.548 89.9693 131.6 90.322 129.362 90.322ZM165.013 90.322C161.118 90.322 157.898 89.4173 155.353 87.608C152.838 85.768 151.473 83.0847 151.259 79.558H162.115C162.268 81.4287 163.096 82.364 164.599 82.364C165.151 82.364 165.611 82.2413 165.979 81.996C166.377 81.72 166.577 81.306 166.577 80.754C166.577 79.9873 166.163 79.374 165.335 78.914C164.507 78.4233 163.219 77.8713 161.471 77.258C159.385 76.522 157.653 75.8013 156.273 75.096C154.923 74.3907 153.758 73.3633 152.777 72.014C151.795 70.6647 151.32 68.932 151.351 66.816C151.351 64.7 151.887 62.906 152.961 61.434C154.065 59.9313 155.552 58.7967 157.423 58.03C159.324 57.2633 161.455 56.88 163.817 56.88C167.803 56.88 170.962 57.8 173.293 59.64C175.654 61.48 176.896 64.0713 177.019 67.414H166.025C165.994 66.494 165.764 65.8347 165.335 65.436C164.905 65.0373 164.384 64.838 163.771 64.838C163.341 64.838 162.989 64.9913 162.713 65.298C162.437 65.574 162.299 65.9727 162.299 66.494C162.299 67.23 162.697 67.8433 163.495 68.334C164.323 68.794 165.626 69.3613 167.405 70.036C169.459 70.8027 171.146 71.5387 172.465 72.244C173.814 72.9493 174.979 73.9307 175.961 75.188C176.942 76.4453 177.433 78.0247 177.433 79.926C177.433 81.9193 176.942 83.7133 175.961 85.308C174.979 86.872 173.553 88.0987 171.683 88.988C169.812 89.8773 167.589 90.322 165.013 90.322ZM206.137 76.798C206.137 77.5033 206.091 78.178 205.999 78.822H189.577C189.73 81.0607 190.665 82.18 192.383 82.18C193.487 82.18 194.284 81.674 194.775 80.662H205.585C205.217 82.502 204.435 84.158 203.239 85.63C202.073 87.0713 200.586 88.2213 198.777 89.08C196.998 89.908 195.035 90.322 192.889 90.322C190.313 90.322 188.013 89.7853 185.989 88.712C183.995 87.6387 182.431 86.1053 181.297 84.112C180.193 82.088 179.641 79.7267 179.641 77.028C179.641 74.3293 180.193 71.9833 181.297 69.99C182.431 67.966 183.995 66.4173 185.989 65.344C188.013 64.2707 190.313 63.734 192.889 63.734C195.465 63.734 197.749 64.2707 199.743 65.344C201.767 66.3867 203.331 67.8893 204.435 69.852C205.569 71.8147 206.137 74.13 206.137 76.798ZM195.787 74.36C195.787 73.5013 195.511 72.8573 194.959 72.428C194.407 71.968 193.717 71.738 192.889 71.738C191.079 71.738 190.021 72.612 189.715 74.36H195.787ZM219.578 68.84C220.621 67.3373 221.894 66.1413 223.396 65.252C224.899 64.332 226.463 63.872 228.088 63.872V74.774H225.19C223.258 74.774 221.832 75.1113 220.912 75.786C220.023 76.4607 219.578 77.6567 219.578 79.374V90H209.366V64.056H219.578V68.84ZM243.995 80.294L248.135 64.056H258.991L250.343 90H237.601L228.953 64.056H239.809L243.995 80.294ZM266.852 61.986C265.074 61.986 263.648 61.5107 262.574 60.56C261.501 59.6093 260.964 58.4133 260.964 56.972C260.964 55.5 261.501 54.2887 262.574 53.338C263.648 52.3567 265.074 51.866 266.852 51.866C268.6 51.866 270.011 52.3567 271.084 53.338C272.158 54.2887 272.694 55.5 272.694 56.972C272.694 58.4133 272.158 59.6093 271.084 60.56C270.011 61.5107 268.6 61.986 266.852 61.986ZM271.912 64.056V90H261.7V64.056H271.912ZM275.145 77.028C275.145 74.3293 275.697 71.9833 276.801 69.99C277.935 67.966 279.499 66.4173 281.493 65.344C283.517 64.2707 285.817 63.734 288.393 63.734C291.766 63.734 294.603 64.6847 296.903 66.586C299.233 68.4873 300.705 71.1247 301.319 74.498H290.509C290.11 73.1487 289.328 72.474 288.163 72.474C287.335 72.474 286.675 72.8573 286.185 73.624C285.725 74.3907 285.495 75.5253 285.495 77.028C285.495 78.5307 285.725 79.6653 286.185 80.432C286.675 81.1987 287.335 81.582 288.163 81.582C289.328 81.582 290.11 80.9073 290.509 79.558H301.319C300.705 82.9313 299.233 85.5687 296.903 87.47C294.603 89.3713 291.766 90.322 288.393 90.322C285.817 90.322 283.517 89.7853 281.493 88.712C279.499 87.6387 277.935 86.1053 276.801 84.112C275.697 82.088 275.145 79.7267 275.145 77.028ZM329.672 76.798C329.672 77.5033 329.626 78.178 329.534 78.822H313.112C313.265 81.0607 314.201 82.18 315.918 82.18C317.022 82.18 317.819 81.674 318.31 80.662H329.12C328.752 82.502 327.97 84.158 326.774 85.63C325.609 87.0713 324.121 88.2213 322.312 89.08C320.533 89.908 318.571 90.322 316.424 90.322C313.848 90.322 311.548 89.7853 309.524 88.712C307.531 87.6387 305.967 86.1053 304.832 84.112C303.728 82.088 303.176 79.7267 303.176 77.028C303.176 74.3293 303.728 71.9833 304.832 69.99C305.967 67.966 307.531 66.4173 309.524 65.344C311.548 64.2707 313.848 63.734 316.424 63.734C319 63.734 321.285 64.2707 323.278 65.344C325.302 66.3867 326.866 67.8893 327.97 69.852C329.105 71.8147 329.672 74.13 329.672 76.798ZM319.322 74.36C319.322 73.5013 319.046 72.8573 318.494 72.428C317.942 71.968 317.252 71.738 316.424 71.738C314.615 71.738 313.557 72.612 313.25 74.36H319.322Z" fill="#6358DC"/>
</svg>
